<svg fill="#1a3856" xmlns="http://www.w3.org/2000/svg"  viewBox="0 0 24 24" width="24px" height="24px"><path d="M 5.5 2 C 4.6774686 2 4 2.6774686 4 3.5 L 4 20.5 C 4 21.322531 4.6774686 22 5.5 22 L 18.5 22 C 19.322531 22 20 21.322531 20 20.5 L 20 7.5 A 0.50005 0.50005 0 0 0 19.853516 7.1464844 L 14.853516 2.1464844 A 0.50005 0.50005 0 0 0 14.5 2 L 5.5 2 z M 5.5 3 L 14 3 L 14 7.5 A 0.50005 0.50005 0 0 0 14.5 8 L 19 8 L 19 18.398438 L 15.064453 14.462891 C 14.481757 13.880194 13.520545 13.880725 12.939453 14.464844 L 11.501953 15.912109 L 9.0605469 13.470703 C 8.7696508 13.17976 8.3850363 13.035135 8 13.035156 C 7.6149637 13.035178 7.229971 13.181393 6.9394531 13.472656 L 5 15.410156 L 5 3.5 C 5 3.2185314 5.2185314 3 5.5 3 z M 15 3.7070312 L 18.292969 7 L 15 7 L 15 3.7070312 z M 15 10 A 1 1 0 0 0 15 12 A 1 1 0 0 0 15 10 z M 8 14.027344 C 8.1268613 14.027252 8.2534118 14.077631 8.3535156 14.177734 L 13.013672 18.837891 A 0.50005 0.50005 0 1 0 13.720703 18.130859 L 12.208984 16.619141 L 13.648438 15.169922 C 13.847345 14.969994 14.158118 14.970618 14.357422 15.169922 L 19 19.8125 L 19 20.5 C 19 20.781469 18.781469 21 18.5 21 L 5.5 21 C 5.2185314 21 5 20.781469 5 20.5 L 5 16.824219 L 7.6464844 14.177734 C 7.7459665 14.077997 7.8731387 14.027435 8 14.027344 z"/></svg>