<svg xmlns="http://www.w3.org/2000/svg" xmlns:xlink="http://www.w3.org/1999/xlink" viewBox="0,0,256,256" width="48px" height="48px" fill-rule="nonzero"><g fill="#1a3856" fill-rule="nonzero" stroke="none" stroke-width="1" stroke-linecap="butt" stroke-linejoin="miter" stroke-miterlimit="10" stroke-dasharray="" stroke-dashoffset="0" font-family="none" font-weight="none" font-size="none" text-anchor="none" style="mix-blend-mode: normal"><g transform="scale(4,4)"><path d="M25.815,50h12.371c-1.068,2.355 -3.436,4 -6.185,4c-2.749,0 -5.118,-1.645 -6.186,-4zM51.509,39.699c0.255,0.255 2.491,2.595 2.491,6.301c0,1.104 -0.896,2 -2,2h-40c-1.104,0 -2,-0.896 -2,-2c0,-3.706 2.236,-6.046 2.491,-6.301c0.165,-0.166 0.359,-0.301 0.571,-0.399c3.056,-1.417 3.604,-9.965 3.897,-14.557c0.779,-7.786 7.072,-10.934 10.68,-11.658c0.668,-1.481 2.023,-3.085 4.361,-3.085c2.338,0 3.693,1.604 4.36,3.084c3.607,0.723 9.899,3.862 10.674,11.586c0.3,4.664 0.848,13.212 3.903,14.629c0.212,0.099 0.407,0.235 0.572,0.4z"></path></g></g></svg>