<svg width="23" height="12" viewBox="0 0 23 12" fill="none" xmlns="http://www.w3.org/2000/svg">
<path d="M20.1686 4.06273C22.4451 1.01074 21.9402 0.953562 22.5 0H18.1375C18.1375 0 17.8275 1.06592 17.7328 1.25673C16.8949 2.94429 15.0155 5.47637 13.8789 5.73516C12.7597 5.99014 12.9082 3.37096 12.9772 2.23639C13.0422 1.18476 13.0311 0.816769 12.9999 0.635098C12.9542 0.369657 12.7293 0.176019 12.4594 0.142278C11.903 0.0724687 10.8934 -0.0262616 9.76279 0.0255967L8.75134 0.0588392C9.15015 0.942259 9.41954 0.671499 9.56641 1.69354C9.73224 2.8901 9.66695 5.80165 8.47691 5.80165C6.56917 5.80165 4.42778 0.127817 4.35963 0H0.5L0.853149 0.875109C3.69933 7.93083 7.25902 11.1987 12.1294 11.4705L12.7632 11.4886L12.8085 10.8791C12.877 9.93785 13.3539 8.58288 14.1996 8.58288C15.4493 8.58288 15.8103 8.94323 16.6344 9.95165C17.4268 10.9185 17.9728 11.4886 19.2515 11.4886H22.5L22.0367 10.5661C21.3133 9.1279 19.8623 7.89493 19.2956 7.17972C19.0904 6.91045 18.8883 6.48478 19.0974 5.96986C19.2684 5.52142 19.7777 4.58614 20.1686 4.06273Z" fill="white"/>
</svg>
